<svg width="180" height="25" viewBox="0 0 180 25" fill="none" xmlns="http://www.w3.org/2000/svg">
<path d="M17.4764 24.4669C23.2675 24.4669 27.9622 19.7722 27.9622 13.9811V13.9811L10.4858 13.9811C4.6947 13.9811 4.08137e-05 18.6757 4.00543e-05 24.4669V24.4669L17.4764 24.4669Z" fill="#3DCFB6"/>
<path d="M27.9622 0V0C27.9622 5.79114 23.2675 10.4858 17.4764 10.4858L3.85689e-05 10.4858V10.4858C3.72825e-05 4.69465 4.69468 5.00368e-06 10.4858 3.75829e-06L27.9622 0Z" fill="#3DCFB6"/>
<path d="M170.241 21.6567V2.08319H174.184V18.1614H180V21.6567H170.241Z" fill="#3DCFB6"/>
<path d="M153.442 21.6567V2.08319H165.27V5.57846H157.022V10.2202H164.795V13.5197H157.022V18.1614H165.27V21.6567H153.442Z" fill="#3DCFB6"/>
<path d="M136.015 21.6567V2.08319H143.257C145.066 2.08319 146.492 2.60515 147.536 3.64907C148.579 4.69299 149.101 6.12838 149.101 7.95524C149.101 9.68889 148.579 11.0684 147.536 12.0936C146.492 13.1003 145.066 13.6036 143.257 13.6036H139.902V21.6567H136.015ZM139.902 10.36H143.173C143.9 10.36 144.469 10.1363 144.879 9.68889C145.289 9.22285 145.494 8.62633 145.494 7.89931C145.494 7.07909 145.289 6.44528 144.879 5.99789C144.469 5.53185 143.9 5.29883 143.173 5.29883H139.902V10.36Z" fill="#3DCFB6"/>
<path d="M116.62 21.6567L121.569 2.08319H127.022L131.971 21.6567H128.028L124.729 7.22822L124.533 5.52253C124.514 5.3734 124.43 5.29883 124.281 5.29883C124.151 5.29883 124.076 5.3734 124.058 5.52253L123.862 7.22822L120.562 21.6567H116.62ZM121.094 16.959L121.849 13.7154H126.714L127.497 16.959H121.094ZM118.549 5.3268V2.08319H122.072L121.653 5.3268H118.549Z" fill="#3DCFB6"/>
<path d="M89.1948 21.6567V2.08319H92.4105L99.0375 13.9391C99.1307 14.0696 99.2332 14.1069 99.3451 14.051C99.4569 13.9951 99.4942 13.9018 99.4569 13.7714L99.0655 11.4785V2.08319H102.784V21.6567H99.4849L92.9697 9.99647C92.8951 9.84734 92.8019 9.80074 92.6901 9.85666C92.5782 9.89394 92.5316 9.98715 92.5503 10.1363L92.9138 12.4571V21.6567H89.1948Z" fill="#3DCFB6"/>
<path d="M72.3958 21.6567V2.08319H84.2237V5.57846H75.9749V10.2202H83.7484V13.5197H75.9749V18.1614H84.2237V21.6567H72.3958Z" fill="#3DCFB6"/>
<path d="M58.4234 21.6567L53.9495 2.08319H57.8642L60.6883 16.0083L60.8841 18.2733C60.9027 18.4224 60.9773 18.497 61.1078 18.497C61.2383 18.497 61.3128 18.4224 61.3315 18.2733L61.5272 16.0083L64.4632 2.08319H68.35L63.7921 21.6567H58.4234Z" fill="#3DCFB6"/>
<path d="M44.4528 21.9363C43.2225 21.9363 42.1226 21.7871 41.1533 21.4889C40.1839 21.172 39.2612 20.7153 38.385 20.1187L39.5594 16.987C40.3796 17.5089 41.1533 17.8911 41.8803 18.1334C42.6073 18.3758 43.4275 18.4969 44.3409 18.4969C45.3289 18.4969 46.1026 18.2732 46.6618 17.8258C47.221 17.3598 47.5007 16.7074 47.5007 15.8685C47.5007 15.1788 47.2956 14.6009 46.8855 14.1348C46.494 13.6688 45.8695 13.3799 45.012 13.268L43.8935 13.1282C42.8869 13.0164 41.9828 12.7461 41.1812 12.3173C40.3796 11.8699 39.7458 11.2641 39.2798 10.4998C38.8138 9.73546 38.5807 8.80339 38.5807 7.70355C38.5807 6.5105 38.8417 5.4759 39.3637 4.59976C39.8856 3.70497 40.6499 3.00591 41.6566 2.5026C42.6819 1.99928 43.9495 1.74762 45.4594 1.74762C46.5966 1.74762 47.6125 1.89675 48.5073 2.19501C49.4021 2.49328 50.1571 2.8661 50.7722 3.3135L49.6817 6.27748C49.0293 5.88601 48.3582 5.60639 47.6684 5.43862C46.9787 5.27085 46.2796 5.18696 45.5713 5.18696C44.4341 5.18696 43.6046 5.41066 43.0826 5.85805C42.5607 6.30544 42.2997 6.83672 42.2997 7.45189C42.2997 8.10434 42.4861 8.59834 42.8589 8.93388C43.2318 9.26943 43.7444 9.48381 44.3969 9.57701L45.5713 9.71682C47.3795 9.90324 48.7683 10.5277 49.7376 11.5903C50.7256 12.6342 51.2196 14.0043 51.2196 15.7007C51.2196 17.0056 50.9493 18.1334 50.4087 19.0841C49.8868 20.0162 49.1225 20.7246 48.1158 21.2093C47.1092 21.6939 45.8882 21.9363 44.4528 21.9363Z" fill="#3DCFB6"/>
</svg>
